<svg width="64" height="64" viewBox="0 0 64 64" fill="none" xmlns="http://www.w3.org/2000/svg">
  <defs>
    <linearGradient id="bgGrad" x1="0" y1="0" x2="64" y2="64" gradientUnits="userSpaceOnUse">
      <stop stop-color="#0ea5e9"/>
      <stop offset="1" stop-color="#0369a1"/>
    </linearGradient>
  </defs>

  <!-- Background -->
  <rect width="64" height="64" rx="12" fill="url(#bgGrad)"/>

  <!-- Building blocks pattern -->
  <rect x="12" y="18" width="10" height="10" rx="1.5" fill="white" opacity="0.2"/>
  <rect x="24" y="18" width="10" height="10" rx="1.5" fill="white" opacity="0.15"/>
  <rect x="36" y="18" width="10" height="10" rx="1.5" fill="white" opacity="0.2"/>
  <rect x="12" y="30" width="10" height="10" rx="1.5" fill="white" opacity="0.15"/>
  <rect x="24" y="30" width="10" height="10" rx="1.5" fill="white" opacity="0.2"/>
  <rect x="36" y="30" width="10" height="10" rx="1.5" fill="white" opacity="0.15"/>
  <rect x="12" y="42" width="10" height="10" rx="1.5" fill="white" opacity="0.2"/>
  <rect x="24" y="42" width="10" height="10" rx="1.5" fill="white" opacity="0.15"/>
  <rect x="36" y="42" width="10" height="10" rx="1.5" fill="white" opacity="0.2"/>

  <!-- G Letter -->
  <path d="M 42 32 C 42 26 37 20 30 20 C 23 20 18 26 18 32 C 18 38 23 44 30 44 C 34 44 37.5 42 40 39 L 34 39 C 33 40.5 31.5 41.5 30 41.5 C 24.5 41.5 20.5 37.5 20.5 32 C 20.5 26.5 24.5 22.5 30 22.5 C 35.5 22.5 39.5 26.5 39.5 32 L 39.5 35 L 30 35 L 30 29 L 42 29 Z" fill="white"/>
</svg>
