<svg width="48" height="48" viewBox="0 0 48 48" fill="none" xmlns="http://www.w3.org/2000/svg">
  <!-- Building blocks design -->
  <rect x="6" y="14" width="14" height="14" rx="2" fill="#0ea5e9" opacity="0.9"/>
  <rect x="22" y="14" width="14" height="14" rx="2" fill="#0369a1" opacity="0.9"/>
  <rect x="6" y="30" width="14" height="14" rx="2" fill="#0369a1" opacity="0.9"/>
  <rect x="22" y="30" width="14" height="14" rx="2" fill="#0284c7" opacity="0.9"/>
  <rect x="14" y="6" width="14" height="14" rx="2" fill="#38bdf8"/>

  <!-- G letter overlay -->
  <path d="M 28 28 C 28 23 23 18 18 18 C 13 18 8 23 8 28 C 8 33 13 38 18 38 C 21 38 23.5 36.5 25 34 L 21 34 C 20 35 19 35.5 18 35.5 C 14.5 35.5 11.5 32.5 11.5 28 C 11.5 23.5 14.5 20.5 18 20.5 C 21.5 20.5 24.5 23.5 24.5 28 L 24.5 30 L 18 30 L 18 26 L 28 26 Z" fill="white"/>
</svg>
