<svg width="280" height="80" viewBox="0 0 280 80" fill="none" xmlns="http://www.w3.org/2000/svg">
  <defs>
    <linearGradient id="grad1" x1="0%" y1="0%" x2="100%" y2="100%">
      <stop offset="0%" style="stop-color:#38bdf8;stop-opacity:1" />
      <stop offset="100%" style="stop-color:#0369a1;stop-opacity:1" />
    </linearGradient>
  </defs>

  <!-- Left Icon -->
  <g id="icon">
    <rect x="12" y="20" width="14" height="14" rx="2" fill="url(#grad1)" opacity="0.9"/>
    <rect x="28" y="20" width="14" height="14" rx="2" fill="#0369a1" opacity="0.9"/>
    <rect x="12" y="36" width="14" height="14" rx="2" fill="#0369a1" opacity="0.9"/>
    <rect x="28" y="36" width="14" height="14" rx="2" fill="#0284c7" opacity="0.9"/>
    <rect x="20" y="12" width="14" height="14" rx="2" fill="#38bdf8"/>

    <path d="M 34 34 C 34 29 29 24 24 24 C 19 24 14 29 14 34 C 14 39 19 44 24 44 C 27 44 29.5 42.5 31 40 L 27 40 C 26 41 25 41.5 24 41.5 C 20.5 41.5 17.5 38.5 17.5 34 C 17.5 29.5 20.5 26.5 24 26.5 C 27.5 26.5 30.5 29.5 30.5 34 L 30.5 36 L 24 36 L 24 32 L 34 32 Z" fill="white"/>
  </g>

  <!-- Company Name -->
  <g id="text">
    <text x="62" y="45" font-family="Arial, sans-serif" font-size="32" font-weight="bold" fill="#1e293b">GIVAND</text>
    <text x="64" y="60" font-family="Arial, sans-serif" font-size="11" font-weight="500" fill="#64748b" letter-spacing="3">IMPORT & EXPORT CO., LTD.</text>
  </g>
</svg>
