<svg width="200" height="60" viewBox="0 0 200 60" fill="none" xmlns="http://www.w3.org/2000/svg">
  <defs>
    <linearGradient id="grad2b" x1="0%" y1="0%" x2="100%" y2="100%">
      <stop offset="0%" style="stop-color:#38bdf8;stop-opacity:1" />
      <stop offset="100%" style="stop-color:#0369a1;stop-opacity:1" />
    </linearGradient>
  </defs>

  <!-- Hexagon icon -->
  <g id="icon2">
    <path d="M 30 10 L 42 17 L 42 31 L 30 38 L 18 31 L 18 17 Z" fill="url(#grad2b)"/>
    <rect x="22" y="20" width="16" height="2.5" rx="1" fill="white" opacity="0.3"/>
    <rect x="22" y="24" width="16" height="2.5" rx="1" fill="white" opacity="0.5"/>
    <rect x="22" y="28" width="16" height="2.5" rx="1" fill="white" opacity="0.7"/>
    <path d="M 36 32 C 36 29 33.5 26.5 30 26.5 C 26.5 26.5 24 29 24 32 C 24 35 26.5 37.5 30 37.5 C 31.5 37.5 32.8 36.8 33.5 35.8 L 31.5 35.8 C 31 36.2 30.5 36.4 30 36.4 C 28.3 36.4 27.1 35 27.1 32 C 27.1 29 28.3 27.6 30 27.6 C 31.7 27.6 32.9 29 32.9 32 L 32.9 33 L 30 33 L 30 31 L 36 31 Z" fill="white"/>
  </g>

  <!-- Company Name -->
  <text x="52" y="32" font-family="Arial, sans-serif" font-size="24" font-weight="bold" fill="#1e293b">GIVAND</text>
  <text x="52" y="46" font-family="Arial, sans-serif" font-size="10" font-weight="500" fill="#64748b" letter-spacing="2">IMPORT & EXPORT</text>
</svg>
