<svg width="48" height="48" viewBox="0 0 48 48" fill="none" xmlns="http://www.w3.org/2000/svg">
  <defs>
    <linearGradient id="grad3" x1="0%" y1="0%" x2="100%" y2="100%">
      <stop offset="0%" style="stop-color:#0ea5e9;stop-opacity:1" />
      <stop offset="50%" style="stop-color:#0284c7;stop-opacity:1" />
      <stop offset="100%" style="stop-color:#0369a1;stop-opacity:1" />
    </linearGradient>
  </defs>

  <!-- Circle background -->
  <circle cx="24" cy="24" r="20" fill="url(#grad3)"/>

  <!-- Shipping container/box concept with G -->
  <g id="container">
    <!-- Container outline -->
    <rect x="12" y="16" width="24" height="16" rx="1" fill="none" stroke="white" stroke-width="1.5" opacity="0.4"/>

    <!-- Container divisions (shipping container ribs) -->
    <line x1="18" y1="16" x2="18" y2="32" stroke="white" stroke-width="1" opacity="0.3"/>
    <line x1="24" y1="16" x2="24" y2="32" stroke="white" stroke-width="1" opacity="0.3"/>
    <line x1="30" y1="16" x2="30" y2="32" stroke="white" stroke-width="1" opacity="0.3"/>

    <!-- Large G in the center -->
    <path d="M 31 24 C 31 20.5 28 17.5 24 17.5 C 20 17.5 17 20.5 17 24 C 17 27.5 20 30.5 24 30.5 C 26 30.5 27.8 29.5 28.8 28 L 26 28 C 25.2 28.6 24.6 29 24 29 C 21.2 29 19 26.8 19 24 C 19 21.2 21.2 19 24 19 C 26.8 19 29 21.2 29 24 L 29 25.5 L 24 25.5 L 24 22.5 L 31 22.5 Z" fill="white"/>
  </g>
</svg>
