<svg width="200" height="60" viewBox="0 0 200 60" fill="none" xmlns="http://www.w3.org/2000/svg">
  <defs>
    <linearGradient id="grad3b" x1="0%" y1="0%" x2="100%" y2="100%">
      <stop offset="0%" style="stop-color:#0ea5e9;stop-opacity:1" />
      <stop offset="50%" style="stop-color:#0284c7;stop-opacity:1" />
      <stop offset="100%" style="stop-color:#0369a1;stop-opacity:1" />
    </linearGradient>
  </defs>

  <!-- Circle icon with container -->
  <g id="icon3">
    <circle cx="30" cy="30" r="20" fill="url(#grad3b)"/>
    <rect x="18" y="22" width="24" height="16" rx="1" fill="none" stroke="white" stroke-width="1.5" opacity="0.4"/>
    <line x1="24" y1="22" x2="24" y2="38" stroke="white" stroke-width="1" opacity="0.3"/>
    <line x1="30" y1="22" x2="30" y2="38" stroke="white" stroke-width="1" opacity="0.3"/>
    <line x1="36" y1="22" x2="36" y2="38" stroke="white" stroke-width="1" opacity="0.3"/>
    <path d="M 37 30 C 37 26.5 34 23.5 30 23.5 C 26 23.5 23 26.5 23 30 C 23 33.5 26 36.5 30 36.5 C 32 36.5 33.8 35.5 34.8 34 L 32 34 C 31.2 34.6 30.6 35 30 35 C 27.2 35 25 32.8 25 30 C 25 27.2 27.2 25 30 25 C 32.8 25 35 27.2 35 30 L 35 31.5 L 30 31.5 L 30 28.5 L 37 28.5 Z" fill="white"/>
  </g>

  <!-- Company Name -->
  <text x="58" y="32" font-family="Arial, sans-serif" font-size="24" font-weight="bold" fill="#1e293b">GIVAND</text>
  <text x="58" y="46" font-family="Arial, sans-serif" font-size="10" font-weight="500" fill="#64748b" letter-spacing="2">IMPORT & EXPORT</text>
</svg>
