<svg width="48" height="48" viewBox="0 0 48 48" fill="none" xmlns="http://www.w3.org/2000/svg">
  <defs>
    <linearGradient id="grad2" x1="0%" y1="0%" x2="100%" y2="100%">
      <stop offset="0%" style="stop-color:#38bdf8;stop-opacity:1" />
      <stop offset="100%" style="stop-color:#0369a1;stop-opacity:1" />
    </linearGradient>
  </defs>

  <!-- Hexagon container shape -->
  <path d="M 24 4 L 38 12 L 38 28 L 24 36 L 10 28 L 10 12 Z" fill="url(#grad2)"/>

  <!-- Stacked layers representing shipping/logistics -->
  <rect x="14" y="14" width="20" height="3" rx="1" fill="white" opacity="0.3"/>
  <rect x="14" y="19" width="20" height="3" rx="1" fill="white" opacity="0.5"/>
  <rect x="14" y="24" width="20" height="3" rx="1" fill="white" opacity="0.7"/>

  <!-- G letter in modern style -->
  <path d="M 30 30 C 30 26 27 23 24 23 C 21 23 18 26 18 30 C 18 34 21 37 24 37 C 26 37 27.5 36 28.5 34.5 L 26 34.5 C 25.3 35 24.7 35.3 24 35.3 C 22 35.3 20.7 33.5 20.7 30 C 20.7 26.5 22 24.7 24 24.7 C 26 24.7 27.3 26.5 27.3 30 L 27.3 31 L 24 31 L 24 28.5 L 30 28.5 Z" fill="white"/>
</svg>
