<svg width="200" height="60" viewBox="0 0 200 60" fill="none" xmlns="http://www.w3.org/2000/svg">
  <!-- Icon/Symbol -->
  <g id="icon">
    <!-- Building blocks design -->
    <rect x="8" y="16" width="14" height="14" rx="2" fill="#0ea5e9" opacity="0.9"/>
    <rect x="24" y="16" width="14" height="14" rx="2" fill="#0369a1" opacity="0.9"/>
    <rect x="8" y="32" width="14" height="14" rx="2" fill="#0369a1" opacity="0.9"/>
    <rect x="24" y="32" width="14" height="14" rx="2" fill="#0284c7" opacity="0.9"/>
    <rect x="16" y="8" width="14" height="14" rx="2" fill="#38bdf8"/>

    <!-- G letter overlay -->
    <path d="M 30 30 C 30 25 25 20 20 20 C 15 20 10 25 10 30 C 10 35 15 40 20 40 C 23 40 25.5 38.5 27 36 L 23 36 C 22 37 21 37.5 20 37.5 C 16.5 37.5 13.5 34.5 13.5 30 C 13.5 25.5 16.5 22.5 20 22.5 C 23.5 22.5 26.5 25.5 26.5 30 L 26.5 32 L 20 32 L 20 28 L 30 28 Z" fill="white"/>
  </g>

  <!-- Company Name -->
  <g id="text">
    <text x="52" y="32" font-family="Arial, sans-serif" font-size="24" font-weight="bold" fill="#1e293b">GIVAND</text>
    <text x="52" y="46" font-family="Arial, sans-serif" font-size="10" font-weight="500" fill="#64748b" letter-spacing="2">IMPORT & EXPORT</text>
  </g>
</svg>
